<svg width="100" height="40" viewBox="0 0 118 26" fill="none" xmlns="http://www.w3.org/2000/svg">
<path d="M11.167 15.1225C11.167 14.7977 11.117 14.5062 11.0171 14.248C10.9255 13.9815 10.7506 13.74 10.4924 13.5234C10.2342 13.2986 9.87193 13.0779 9.40553 12.8613C8.93913 12.6448 8.33531 12.4199 7.59407 12.1867C6.76954 11.9202 5.98665 11.6204 5.24541 11.2872C4.5125 10.9541 3.86287 10.5668 3.29653 10.1254C2.73852 9.67566 2.2971 9.15512 1.97229 8.56379C1.65581 7.97247 1.49756 7.28536 1.49756 6.50248C1.49756 5.74458 1.66413 5.05747 1.99728 4.44116C2.33042 3.81652 2.79682 3.28349 3.39647 2.84207C3.99613 2.39233 4.70406 2.0467 5.52026 1.80517C6.34478 1.56364 7.24843 1.44288 8.2312 1.44288C9.5721 1.44288 10.7423 1.68441 11.7417 2.16746C12.7411 2.65052 13.5157 3.31264 14.0654 4.15382C14.6234 4.99501 14.9024 5.95696 14.9024 7.03967H11.1795C11.1795 6.50664 11.0671 6.04024 10.8422 5.64047C10.6257 5.23237 10.2925 4.91172 9.84278 4.67852C9.40136 4.44532 8.84335 4.32872 8.16874 4.32872C7.51911 4.32872 6.97775 4.42866 6.54467 4.62855C6.11158 4.82011 5.78677 5.08246 5.57023 5.4156C5.35368 5.74041 5.24541 6.10687 5.24541 6.51497C5.24541 6.82312 5.32037 7.10213 5.47028 7.35199C5.62853 7.60184 5.86173 7.83504 6.16988 8.05159C6.47804 8.26813 6.85699 8.47218 7.30673 8.66374C7.75647 8.85529 8.27701 9.04269 8.86834 9.22591C9.85943 9.52574 10.7298 9.86305 11.4793 10.2378C12.2372 10.6126 12.8702 11.0332 13.3782 11.4996C13.8863 11.966 14.2694 12.4949 14.5276 13.0862C14.7858 13.6775 14.9149 14.348 14.9149 15.0975C14.9149 15.8888 14.7608 16.5967 14.4526 17.2213C14.1445 17.846 13.6989 18.3748 13.1159 18.8079C12.5329 19.241 11.8375 19.57 11.0296 19.7949C10.2217 20.0197 9.31808 20.1322 8.31865 20.1322C7.41917 20.1322 6.53217 20.0156 5.65768 19.7824C4.78318 19.5408 3.9878 19.1785 3.27155 18.6955C2.56362 18.2124 1.99728 17.5961 1.57252 16.8465C1.14776 16.097 0.935385 15.21 0.935385 14.1856H4.69573C4.69573 14.7519 4.78318 15.2308 4.95808 15.6222C5.13298 16.0137 5.37867 16.3302 5.69516 16.5717C6.01997 16.8132 6.40308 16.9881 6.8445 17.0964C7.29424 17.2047 7.78562 17.2588 8.31865 17.2588C8.96828 17.2588 9.50131 17.1672 9.91773 16.984C10.3425 16.8007 10.6548 16.5467 10.8547 16.2219C11.0629 15.8971 11.167 15.5306 11.167 15.1225ZM23.46 20.1322C22.4106 20.1322 21.4694 19.9656 20.6366 19.6324C19.8037 19.291 19.0958 18.8204 18.5128 18.2208C17.9381 17.6211 17.4967 16.9257 17.1886 16.1345C16.8804 15.3349 16.7263 14.4854 16.7263 13.5859V13.0862C16.7263 12.0618 16.8721 11.1248 17.1636 10.2753C17.4551 9.4258 17.8715 8.68872 18.4129 8.06408C18.9625 7.43944 19.6288 6.96055 20.4117 6.6274C21.1946 6.28593 22.0774 6.1152 23.0602 6.1152C24.018 6.1152 24.8675 6.27344 25.6087 6.58993C26.35 6.90641 26.9705 7.35615 27.4702 7.93915C27.9782 8.52215 28.3613 9.22175 28.6195 10.0379C28.8777 10.8458 29.0068 11.7453 29.0068 12.7364V14.2355H18.2629V11.8369H25.4713V11.5621C25.4713 11.0624 25.3797 10.6168 25.1965 10.2253C25.0216 9.82557 24.7551 9.50908 24.3969 9.27588C24.0388 9.04269 23.5807 8.92609 23.0227 8.92609C22.548 8.92609 22.1399 9.03019 21.7984 9.23841C21.4569 9.44662 21.1779 9.73812 20.9614 10.1129C20.7532 10.4877 20.5949 10.9291 20.4867 11.4371C20.3867 11.9369 20.3368 12.4865 20.3368 13.0862V13.5859C20.3368 14.1273 20.4117 14.627 20.5616 15.0851C20.7199 15.5431 20.9406 15.9387 21.2237 16.2719C21.5152 16.605 21.865 16.8632 22.2731 17.0464C22.6896 17.2297 23.1601 17.3213 23.6848 17.3213C24.3345 17.3213 24.9383 17.1963 25.4963 16.9465C26.0626 16.6883 26.5499 16.301 26.958 15.7847L28.707 17.6836C28.4238 18.0917 28.0365 18.4831 27.5451 18.8579C27.0621 19.2327 26.4791 19.5408 25.7961 19.7824C25.1132 20.0156 24.3345 20.1322 23.46 20.1322ZM34.8534 0.693307V19.8823H31.243V0.693307H34.8534ZM41.6245 6.36505V19.8823H38.0141V6.36505H41.6245ZM37.7892 2.84207C37.7892 2.31738 37.9725 1.88429 38.3389 1.54282C38.7054 1.20135 39.1968 1.03061 39.8131 1.03061C40.4211 1.03061 40.9083 1.20135 41.2747 1.54282C41.6495 1.88429 41.8369 2.31738 41.8369 2.84207C41.8369 3.36677 41.6495 3.79986 41.2747 4.14133C40.9083 4.4828 40.4211 4.65354 39.8131 4.65354C39.1968 4.65354 38.7054 4.4828 38.3389 4.14133C37.9725 3.79986 37.7892 3.36677 37.7892 2.84207ZM53.1554 6.36505H56.4161V19.4326C56.4161 20.6652 56.1412 21.7104 55.5915 22.5683C55.0502 23.4344 54.2923 24.0882 53.3178 24.5296C52.3434 24.9794 51.2107 25.2042 49.9198 25.2042C49.3534 25.2042 48.7538 25.1293 48.1208 24.9794C47.4962 24.8295 46.8965 24.5963 46.3219 24.2798C45.7555 23.9633 45.2808 23.5635 44.8977 23.0805L46.4843 20.9567C46.9007 21.4397 47.3837 21.8145 47.9334 22.081C48.4831 22.3559 49.0911 22.4933 49.7574 22.4933C50.407 22.4933 50.9567 22.3725 51.4064 22.131C51.8562 21.8978 52.2018 21.5522 52.4433 21.0941C52.6849 20.6444 52.8056 20.0988 52.8056 19.4575V9.48826L53.1554 6.36505ZM44.0606 13.2861V13.0237C44.0606 11.991 44.1856 11.054 44.4354 10.2128C44.6936 9.36333 45.0559 8.63459 45.5223 8.0266C45.997 7.41862 46.5717 6.94805 47.2463 6.61491C47.9209 6.28177 48.683 6.1152 49.5325 6.1152C50.432 6.1152 51.1857 6.28177 51.7937 6.61491C52.4017 6.94805 52.9014 7.42278 53.2929 8.03909C53.6843 8.64708 53.9883 9.3675 54.2048 10.2004C54.4297 11.0249 54.6046 11.9285 54.7295 12.9113V13.486C54.6046 14.4271 54.4172 15.3016 54.1674 16.1095C53.9175 16.9173 53.5885 17.6253 53.1804 18.2332C52.7723 18.8329 52.2643 19.2993 51.6563 19.6324C51.0566 19.9656 50.3404 20.1322 49.5075 20.1322C48.6747 20.1322 47.9209 19.9614 47.2463 19.62C46.58 19.2785 46.0095 18.7996 45.5348 18.1833C45.0601 17.567 44.6936 16.8424 44.4354 16.0095C44.1856 15.1767 44.0606 14.2689 44.0606 13.2861ZM47.6586 13.0237V13.2861C47.6586 13.8441 47.7127 14.3646 47.821 14.8477C47.9293 15.3307 48.0958 15.7597 48.3207 16.1345C48.5539 16.5009 48.8412 16.7882 49.1827 16.9965C49.5325 17.1963 49.9448 17.2963 50.4195 17.2963C51.0775 17.2963 51.6146 17.1589 52.0311 16.884C52.4475 16.6009 52.7598 16.2136 52.968 15.7222C53.1763 15.2308 53.297 14.6645 53.3303 14.0232V12.3866C53.3137 11.8619 53.2429 11.3913 53.118 10.9749C52.993 10.5502 52.8181 10.1879 52.5933 9.88803C52.3684 9.58821 52.0769 9.35501 51.7188 9.18843C51.3606 9.02186 50.9359 8.93858 50.4445 8.93858C49.9698 8.93858 49.5575 9.04685 49.2077 9.26339C48.8662 9.47161 48.5789 9.75894 48.3457 10.1254C48.1208 10.4919 47.9501 10.9249 47.8335 11.4247C47.7169 11.916 47.6586 12.4491 47.6586 13.0237ZM66.5103 16.834V10.8125C66.5103 10.3794 66.4395 10.0088 66.2979 9.70064C66.1563 9.38416 65.9356 9.13846 65.6358 8.96356C65.3443 8.78866 64.9653 8.70121 64.4989 8.70121C64.0992 8.70121 63.7535 8.77201 63.462 8.91359C63.1705 9.04685 62.9457 9.24257 62.7874 9.50076C62.6292 9.75061 62.55 10.0463 62.55 10.3877H58.9521C58.9521 9.81308 59.0854 9.26756 59.3519 8.75119C59.6184 8.23482 60.0057 7.78091 60.5137 7.38947C61.0218 6.9897 61.6256 6.67738 62.3252 6.4525C63.0331 6.22763 63.8243 6.1152 64.6988 6.1152C65.7482 6.1152 66.681 6.2901 67.4972 6.6399C68.3134 6.9897 68.9547 7.5144 69.4211 8.21399C69.8958 8.91359 70.1332 9.78809 70.1332 10.8375V16.6217C70.1332 17.3629 70.179 17.9709 70.2706 18.4456C70.3622 18.912 70.4955 19.3201 70.6704 19.6699V19.8823H67.035C66.8601 19.5158 66.7268 19.0578 66.6352 18.5081C66.5519 17.9501 66.5103 17.3921 66.5103 16.834ZM66.985 11.6495L67.01 13.6859H64.9986C64.5239 13.6859 64.1117 13.74 63.7619 13.8483C63.4121 13.9565 63.1247 14.1106 62.8998 14.3105C62.675 14.5021 62.5084 14.7269 62.4001 14.9851C62.3002 15.2433 62.2502 15.5265 62.2502 15.8346C62.2502 16.1428 62.321 16.4218 62.4626 16.6716C62.6042 16.9132 62.8082 17.1047 63.0747 17.2463C63.3413 17.3796 63.6536 17.4462 64.0117 17.4462C64.5531 17.4462 65.0236 17.3379 65.4234 17.1214C65.8232 16.9048 66.1313 16.6383 66.3479 16.3218C66.5727 16.0054 66.6893 15.7055 66.6977 15.4224L67.6471 16.9465C67.5139 17.288 67.3306 17.6419 67.0974 18.0084C66.8726 18.3748 66.5852 18.7205 66.2354 19.0453C65.8856 19.3618 65.465 19.6241 64.9737 19.8323C64.4823 20.0322 63.8993 20.1322 63.2247 20.1322C62.3668 20.1322 61.5881 19.9614 60.8885 19.62C60.1972 19.2702 59.6475 18.7913 59.2394 18.1833C58.8397 17.567 58.6398 16.8674 58.6398 16.0845C58.6398 15.3766 58.773 14.7477 59.0396 14.1981C59.3061 13.6484 59.6975 13.1861 60.2139 12.8114C60.7386 12.4282 61.3924 12.1409 62.1753 11.9494C62.9581 11.7495 63.866 11.6495 64.8987 11.6495H66.985ZM73.0815 18.1458C73.0815 17.6128 73.2647 17.1672 73.6312 16.8091C74.006 16.4509 74.5015 16.2719 75.1178 16.2719C75.7342 16.2719 76.2255 16.4509 76.592 16.8091C76.9668 17.1672 77.1542 17.6128 77.1542 18.1458C77.1542 18.6788 76.9668 19.1244 76.592 19.4825C76.2255 19.8407 75.7342 20.0197 75.1178 20.0197C74.5015 20.0197 74.006 19.8407 73.6312 19.4825C73.2647 19.1244 73.0815 18.6788 73.0815 18.1458ZM87.6731 11.8994H83.0008L82.9758 9.32586H86.8986C87.5898 9.32586 88.1562 9.23841 88.5976 9.06351C89.039 8.88028 89.368 8.61793 89.5845 8.27646C89.8094 7.92666 89.9218 7.5019 89.9218 7.00219C89.9218 6.43585 89.8136 5.97778 89.597 5.62798C89.3888 5.27818 89.0598 5.02416 88.6101 4.86591C88.1687 4.70767 87.5982 4.62855 86.8986 4.62855H84.3001V19.8823H80.5522V1.69273H86.8986C87.9563 1.69273 88.9016 1.79268 89.7344 1.99256C90.5756 2.19245 91.2877 2.49644 91.8707 2.90454C92.4537 3.31264 92.8993 3.82901 93.2075 4.45365C93.5156 5.06996 93.6697 5.80288 93.6697 6.65239C93.6697 7.40196 93.499 8.09323 93.1575 8.7262C92.8243 9.35917 92.2955 9.87554 91.5709 10.2753C90.8546 10.6751 89.9177 10.8958 88.76 10.9374L87.6731 11.8994ZM87.5107 19.8823H81.9764L83.4381 16.959H87.5107C88.1687 16.959 88.7059 16.8549 89.1223 16.6467C89.5387 16.4301 89.8469 16.1386 90.0468 15.7722C90.2467 15.4057 90.3466 14.9851 90.3466 14.5104C90.3466 13.9774 90.255 13.5151 90.0718 13.1237C89.8969 12.7322 89.6137 12.4324 89.2222 12.2242C88.8308 12.0077 88.3144 11.8994 87.6731 11.8994H84.0627L84.0877 9.32586H88.5851L89.4471 10.3378C90.5548 10.3211 91.446 10.5168 92.1206 10.9249C92.8035 11.3247 93.2991 11.8452 93.6072 12.4865C93.9237 13.1278 94.082 13.8149 94.082 14.5479C94.082 15.7139 93.8279 16.6966 93.3199 17.4962C92.8118 18.2874 92.0664 18.8829 91.0837 19.2826C90.1092 19.6824 88.9182 19.8823 87.5107 19.8823ZM100.266 9.31336V19.8823H96.668V6.36505H100.054L100.266 9.31336ZM104.339 6.2776L104.276 9.61319C104.101 9.58821 103.889 9.56738 103.639 9.55073C103.397 9.52574 103.177 9.51325 102.977 9.51325C102.469 9.51325 102.027 9.57988 101.653 9.71313C101.286 9.83806 100.978 10.0255 100.728 10.2753C100.487 10.5252 100.303 10.8292 100.178 11.1873C100.062 11.5454 99.9952 11.9535 99.9786 12.4116L99.254 12.1867C99.254 11.3122 99.3414 10.5085 99.5163 9.7756C99.6912 9.03436 99.9453 8.38889 100.278 7.83921C100.62 7.28952 101.036 6.86477 101.528 6.56494C102.019 6.26511 102.581 6.1152 103.214 6.1152C103.414 6.1152 103.618 6.13185 103.826 6.16517C104.035 6.19015 104.205 6.22763 104.339 6.2776ZM105.088 13.2611V12.9987C105.088 12.0077 105.23 11.0957 105.513 10.2628C105.796 9.42163 106.208 8.69289 106.75 8.07657C107.291 7.46026 107.957 6.98137 108.749 6.6399C109.54 6.2901 110.448 6.1152 111.472 6.1152C112.496 6.1152 113.408 6.2901 114.208 6.6399C115.007 6.98137 115.678 7.46026 116.219 8.07657C116.769 8.69289 117.185 9.42163 117.469 10.2628C117.752 11.0957 117.893 12.0077 117.893 12.9987V13.2611C117.893 14.2439 117.752 15.1558 117.469 15.997C117.185 16.8299 116.769 17.5586 116.219 18.1833C115.678 18.7996 115.012 19.2785 114.22 19.62C113.429 19.9614 112.521 20.1322 111.497 20.1322C110.473 20.1322 109.561 19.9614 108.761 19.62C107.97 19.2785 107.299 18.7996 106.75 18.1833C106.208 17.5586 105.796 16.8299 105.513 15.997C105.23 15.1558 105.088 14.2439 105.088 13.2611ZM108.686 12.9987V13.2611C108.686 13.8274 108.736 14.3563 108.836 14.8477C108.936 15.3391 109.094 15.7722 109.311 16.1469C109.536 16.5134 109.827 16.8007 110.185 17.0089C110.543 17.2172 110.981 17.3213 111.497 17.3213C111.997 17.3213 112.426 17.2172 112.784 17.0089C113.142 16.8007 113.429 16.5134 113.646 16.1469C113.862 15.7722 114.021 15.3391 114.12 14.8477C114.229 14.3563 114.283 13.8274 114.283 13.2611V12.9987C114.283 12.4491 114.229 11.9327 114.12 11.4496C114.021 10.9583 113.858 10.5252 113.633 10.1504C113.417 9.76727 113.129 9.46744 112.771 9.2509C112.413 9.03436 111.98 8.92609 111.472 8.92609C110.964 8.92609 110.531 9.03436 110.173 9.2509C109.823 9.46744 109.536 9.76727 109.311 10.1504C109.094 10.5252 108.936 10.9583 108.836 11.4496C108.736 11.9327 108.686 12.4491 108.686 12.9987Z" fill="#E1E1E6"/>
</svg>
